<?xml version="1.0" encoding="UTF-8"?>
<svg id="Layer_1" xmlns="http://www.w3.org/2000/svg" version="1.1" xmlns:xlink="http://www.w3.org/1999/xlink" viewBox="0 0 147 42">
  <!-- Generator: Adobe Illustrator 29.2.1, SVG Export Plug-In . SVG Version: 2.1.0 Build 116)  -->
  <defs>
    <style>
      .st0 {
        fill: none;
      }

      .st1 {
        fill: #f0927e;
      }

      .st2 {
        font-family: MyriadPro-Regular, 'Myriad Pro';
        font-size: 12px;
      }

      .st3 {
        clip-path: url(#clippath);
      }
    </style>
    <clipPath id="clippath">
      <rect class="st0" x="129" width="18" height="18"/>
    </clipPath>
  </defs>
  <path class="st1" d="M12,18h78c6.6,0,12,5.4,12,12h0c0,6.6-5.4,12-12,12H12c-6.6,0-12-5.4-12-12h0c0-6.6,5.4-12,12-12Z"/>
  <g class="st3">
    <path class="st1" d="M129.3,7.4L146.3,0c.2,0,.4,0,.6.1.2.2.2.4.1.6l-7.4,16.9c0,.2-.3.3-.5.3s0,0,0,0c-.2,0-.4-.2-.5-.4l-1.6-5.2c-.4-1.2-1.3-2.1-2.5-2.5l-5.2-1.6c-.2,0-.4-.3-.4-.5,0-.2.1-.4.3-.5Z"/>
  </g>
  <text class="st2" transform="translate(5.5 33.4)"><tspan x="0" y="0">Real Estate Agents</tspan></text>
</svg>